<svg xmlns="http://www.w3.org/2000/svg" xmlns:xlink="http://www.w3.org/1999/xlink" id="Group_14" data-name="Group 14" width="169.829" height="41.633" viewBox="0 0 169.829 41.633"><defs><clipPath id="clip-path"><rect id="Rectangle_1" data-name="Rectangle 1" width="169.829" height="41.633" fill="none"></rect></clipPath></defs><g id="Group_1" data-name="Group 1" clip-path="url(#clip-path)"><path id="Path_1" data-name="Path 1" d="M275.421,72.215h-8.348c1.118-6.88,2.268-13.715,3.456-20.609,2.929.016,5.839.064,8.813.162l-.4,2.5a30.071,30.071,0,0,1,2.544-1.793,11.72,11.72,0,0,1,4.05-1.339,13.178,13.178,0,0,1,5.578.382,5.148,5.148,0,0,1,3.169,2.641c.066.13.134.258.193.37a21.062,21.062,0,0,1,1.842-1.541,11.073,11.073,0,0,1,4.037-1.761,14.119,14.119,0,0,1,5.5.012,8.653,8.653,0,0,1,2.6.948,5.189,5.189,0,0,1,1.974,2.08c.046.084.091.169.135.253a6.619,6.619,0,0,1,.551,4.242c-.336,2.014-.778,4.01-1.168,6.015-.447,2.3-1.411,7.246-1.456,7.439H300.2c.113-.66.22-1.293.33-1.926.387-2.232.79-4.461,1.154-6.7.131-.805.188-1.625.246-2.44a2.364,2.364,0,0,0-1.9-2.678,5.112,5.112,0,0,0-3.388.181,4.309,4.309,0,0,0-2.055,1.809,9.252,9.252,0,0,0-1.046,3.27q-.785,4.074-1.571,8.149a3.226,3.226,0,0,1-.1.33H283.72c.061-.434.111-.849.178-1.262q.481-2.968.97-5.935c.166-1.008.347-2.013.505-3.022a3.922,3.922,0,0,0-.187-2.14,2.111,2.111,0,0,0-1.564-1.36,5.912,5.912,0,0,0-3.511.09,3.815,3.815,0,0,0-2.223,1.969,14.492,14.492,0,0,0-.964,3.537c-.475,2.442-.9,4.893-1.346,7.34-.046.253-.1.5-.156.778" transform="translate(-238.833 -45.578)" fill="#10446f"></path><path id="Path_2" data-name="Path 2" d="M1537.7,56.261a3.82,3.82,0,1,1-3.834,3.813,3.832,3.832,0,0,1,3.834-3.813m.011.593a3.23,3.23,0,1,0,3.2,3.263,3.218,3.218,0,0,0-3.2-3.263" transform="translate(-1371.681 -50.312)" fill="#10446f"></path><path id="Path_3" data-name="Path 3" d="M1560.622,79.063l-.8-1.353h-.63v1.353h-.635V75.439h1.592a1.1,1.1,0,0,1,1.184,1.135,1.016,1.016,0,0,1-.858,1.065l.885,1.423ZM1560.057,76h-.869V77.15h.869a.577.577,0,1,0,0-1.152" transform="translate(-1393.752 -67.462)" fill="#10446f"></path><path id="Path_4" data-name="Path 4" d="M781.389,12.573a7.975,7.975,0,0,0-2.15-3.714,9.607,9.607,0,0,0-2.9-1.935,19.3,19.3,0,0,0-6.485-1.45,21.06,21.06,0,0,0-6.552.555A16.714,16.714,0,0,0,757.6,8.8a15.866,15.866,0,0,0-2.149,1.961,13.714,13.714,0,0,0-1.682,2.413,8.353,8.353,0,0,1-.9,1.387c-.076-.01-.161-.325-.182-.38-.724-1.882-1.4-4.009-2.891-5.45a12.139,12.139,0,0,0-5.544-2.845q-.151-.037-.3-.071a20.263,20.263,0,0,0-11.778.945,16.046,16.046,0,0,0-7.456,5.985q-.119.18-.233.364a10,10,0,0,0-5.868-6.226A11.426,11.426,0,0,0,715.23,6.1a13.061,13.061,0,0,0-3.236.164,13.692,13.692,0,0,0-3.106.932,10.331,10.331,0,0,0-1.1.544c-.388.227-1.343.811-1.433.838a1.823,1.823,0,0,1,.057-.409q.033-.232.066-.463l.131-.922.26-1.828.515-3.621L707.572,0h-8.729c-.045.231-.094.445-.126.662-.277,1.855-.544,3.712-.825,5.567q-.732,4.82-1.479,9.638c-.442,2.827-.908,5.651-1.349,8.478-.133.855-.319,1.717-.427,2.573.887.054,6.9-.015,8.341-.029l.667-2.793a10,10,0,0,0,.662.833,8.345,8.345,0,0,0,4.582,2.358,18.579,18.579,0,0,0,6.438-.073,11.745,11.745,0,0,0,4.556-1.863,12.109,12.109,0,0,0,3.226-3.111c.113-.163.245-.314.385-.492a13.771,13.771,0,0,0,3.087,3.608,10.041,10.041,0,0,0,2.79,1.7,19.362,19.362,0,0,0,6.058,1.116,31.319,31.319,0,0,0,5.783-.328,15.332,15.332,0,0,0,5.852-2.025c.315-.194.6-.435.908-.644q.364-.246.7-.526t.641-.585q.3-.305.577-.639t.516-.691q.244-.36.457-.741c.078-.139.157-.281.224-.427a1.915,1.915,0,0,0,.09-.222,1.576,1.576,0,0,0,.065-.249H747.68q-2.4,0-4.8,0c-.139,0-.218,0-.292,0a3.7,3.7,0,0,1-1.115,1.33,3.2,3.2,0,0,1-.274.194,5.237,5.237,0,0,1-1.772.712,9,9,0,0,1-4.938-.079,3.67,3.67,0,0,1-2.335-4.689q10,0,20.056,0c.028.281.062.481.065.682a8.069,8.069,0,0,0,4.037,6.847,15.978,15.978,0,0,0,4.1,1.518,27.808,27.808,0,0,0,7.709.528,21.761,21.761,0,0,0,2.654-.314,16.07,16.07,0,0,0,4.111-1.365,12.845,12.845,0,0,0,2.121-1.265,11.4,11.4,0,0,0,1.816-1.644,11.613,11.613,0,0,0,.824-1.066q.131-.19.256-.384a4.734,4.734,0,0,0,.269-.473c.041-.084.079-.17.114-.257a1.829,1.829,0,0,0,.094-.256,1.757,1.757,0,0,0-.289-.011c-.1,0-.2,0-.295-.01-2.511,0-5.249-.009-7.76-.009-.191,0-.3,0-.394,0a4.019,4.019,0,0,1-.458.647,4.314,4.314,0,0,1-2.023,1.464,9.031,9.031,0,0,1-5.591.056,3.283,3.283,0,0,1-2.472-2.736,4.2,4.2,0,0,1,.086-1.957H781.3c.067,0,.117-.659.124-.724a18.961,18.961,0,0,0,.233-3.673c-.005-.074-.011-.148-.019-.221a8.093,8.093,0,0,0-.249-1.369m-67.866,7.411a4.854,4.854,0,0,1-1.8,1.785,5.556,5.556,0,0,1-3.243.575,6.425,6.425,0,0,1-1.683-.357,4.01,4.01,0,0,1-2.536-3.216,6.853,6.853,0,0,1,.945-4.92,5.443,5.443,0,0,1,1.971-1.924A5.543,5.543,0,0,1,710,11.213a5.217,5.217,0,0,1,2.23.431,3.629,3.629,0,0,1,2.291,2.761,7.834,7.834,0,0,1-1,5.579m30.366-5.419H732.772a3.47,3.47,0,0,1,.6-1.4,6.881,6.881,0,0,1,7.427-2.922,5.44,5.44,0,0,1,1.581.659,3.343,3.343,0,0,1,1.506,3.665m29.151-.009H761.815c.039-.152.057-.261.093-.363a5.8,5.8,0,0,1,3.045-3.381,7.529,7.529,0,0,1,4.992-.6,4.349,4.349,0,0,1,2.47,1.408,2.56,2.56,0,0,1,.615,1.411,14.718,14.718,0,0,1,.011,1.525" transform="translate(-621.187 -0.001)" fill="#ab2025"></path><path id="Path_5" data-name="Path 5" d="M29.432,60.965a9.594,9.594,0,0,0-.765-3.459,7.219,7.219,0,0,0-1.9-2.51,9.615,9.615,0,0,0-2.658-1.708,15.129,15.129,0,0,0-4.148-1.217,25.338,25.338,0,0,0-8.7.355,17.457,17.457,0,0,0-4.234,1.51A12.6,12.6,0,0,0,4,56.189a14.355,14.355,0,0,0-2.864,3.872,10.789,10.789,0,0,0-.983,6.667,7.5,7.5,0,0,0,2.175,4.354A13.05,13.05,0,0,0,7.9,73.948a19.975,19.975,0,0,0,5.527.579,25.461,25.461,0,0,0,3.671-.2A21.625,21.625,0,0,0,21.978,73a12.223,12.223,0,0,0,4-2.552A11.105,11.105,0,0,0,27.7,68.061a6.262,6.262,0,0,0,.26-.6c-.222-.011-.34-.017-.468-.018-.651,0-1.3,0-1.953,0-1.953,0-4.134,0-6.087,0-.1,0-.175,0-.232,0a3.236,3.236,0,0,1-.208.355,3.652,3.652,0,0,1-1.884,1.59,8.9,8.9,0,0,1-6.01.169,3.261,3.261,0,0,1-2.385-2.687,3.841,3.841,0,0,1,.121-2.086h20.3c.054-.459.119-.859.146-1.261a23.671,23.671,0,0,0,.128-2.559m-8.719-.048H9.585a9.175,9.175,0,0,1,2.077-3.1,7.187,7.187,0,0,1,5.142-1.4,4.355,4.355,0,0,1,3.1,1.436,3.842,3.842,0,0,1,.809,3.063" transform="translate(0 -46.376)" fill="#10446f"></path><path id="Path_6" data-name="Path 6" d="M793,302.43l.085,5.711,4.078-5.711h1.661l-2.608,7.464h-1.261l.882-2.528,1.21-3.112-4.07,5.64h-.913l-.119-5.809-1.069,3.414-.837,2.394h-1.261l2.614-7.464Z" transform="translate(-705.376 -270.452)" fill="#10446f"></path><path id="Path_7" data-name="Path 7" d="M877,325.24a1.635,1.635,0,0,1,.04-.518,2.443,2.443,0,0,1-1.591.62,1.427,1.427,0,0,1-1.115-.464,1.25,1.25,0,0,1-.241-1.151,2.125,2.125,0,0,1,1-1.379,3.748,3.748,0,0,1,2.016-.5l.787.01.139-.379a1.2,1.2,0,0,0,.066-.374q-.005-.554-.633-.569a1.267,1.267,0,0,0-.719.2,1.086,1.086,0,0,0-.459.556l-1.217.01a1.863,1.863,0,0,1,.523-.9,2.741,2.741,0,0,1,.978-.6,3.222,3.222,0,0,1,1.184-.205,1.629,1.629,0,0,1,1.319.546,1.455,1.455,0,0,1,.18,1.361l-.884,2.6-.122.461a1.6,1.6,0,0,0-.027.59l-.021.092Zm-1.093-.892a1.507,1.507,0,0,0,.744-.177,2.433,2.433,0,0,0,.644-.484l.375-1.051-.578,0a2.289,2.289,0,0,0-1.143.259,1.2,1.2,0,0,0-.592.71.571.571,0,0,0,.056.541.619.619,0,0,0,.494.207" transform="translate(-781.633 -285.797)" fill="#10446f"></path><path id="Path_8" data-name="Path 8" d="M924.365,304.057l-.794.61-.613,1.759h-1.215l2.752-7.875h1.215l-1.568,4.47.5-.441,2.064-1.7h1.553l-2.878,2.368,1.059,3.179h-1.318Z" transform="translate(-824.279 -266.983)" fill="#10446f"></path><path id="Path_9" data-name="Path 9" d="M972.713,308.244H971.5l1.942-5.547h1.215Zm1.152-6.967a.832.832,0,0,1,.27-.482.8.8,0,0,1,.534-.21.547.547,0,0,1,.463.182.542.542,0,0,1,.115.469.789.789,0,0,1-.277.482.836.836,0,0,1-.525.2.558.558,0,0,1-.461-.177.525.525,0,0,1-.118-.464" transform="translate(-868.773 -268.8)" fill="#10446f"></path><path id="Path_10" data-name="Path 10" d="M997.083,319.688l-.238.651a2.536,2.536,0,0,1,1.778-.748,1.1,1.1,0,0,1,1.056.556,2.1,2.1,0,0,1,.011,1.51l-1.232,3.584h-1.215l1.24-3.6a1.948,1.948,0,0,0,.078-.41q.04-.61-.618-.625a1.806,1.806,0,0,0-1.335.682l-1.389,3.953H994l1.937-5.547Z" transform="translate(-888.897 -285.797)" fill="#10446f"></path><path id="Path_11" data-name="Path 11" d="M1044.346,322.419a5.1,5.1,0,0,1,.714-1.5,3.512,3.512,0,0,1,1.065-1.028,2.379,2.379,0,0,1,1.281-.346,1.345,1.345,0,0,1,1.261.672l.29-.569,1.106,0-1.869,5.393a3.341,3.341,0,0,1-1.22,1.73,3.076,3.076,0,0,1-1.961.613,2.293,2.293,0,0,1-1.061-.266,1.784,1.784,0,0,1-.721-.677l.775-.733a1.264,1.264,0,0,0,1.149.692,1.72,1.72,0,0,0,1.08-.325,2.152,2.152,0,0,0,.746-.987l.156-.39a2.33,2.33,0,0,1-1.562.6,1.279,1.279,0,0,1-1.144-.59,2.313,2.313,0,0,1-.241-1.559,5.468,5.468,0,0,1,.155-.733m1.186.108a3.973,3.973,0,0,0-.12.564,1.324,1.324,0,0,0,.094.861.676.676,0,0,0,.613.333,1.743,1.743,0,0,0,1.323-.641l.868-2.451a.8.8,0,0,0-.837-.631,1.518,1.518,0,0,0-1.12.477,3.274,3.274,0,0,0-.792,1.379Z" transform="translate(-932.922 -285.754)" fill="#10446f"></path><path id="Path_12" data-name="Path 12" d="M1125.762,309.895H1124.5l2.613-7.464h1.261Z" transform="translate(-1005.597 -270.452)" fill="#10446f"></path><path id="Path_13" data-name="Path 13" d="M1170.464,303.476h-2.256l-2.244,6.419H1164.7l2.249-6.419h-2.24l.369-1.046h5.752Z" transform="translate(-1041.548 -270.452)" fill="#10446f"></path><path id="Path_14" data-name="Path 14" d="M1232.366,306.562h-2.973l-.8,2.3h3.476l-.362,1.036h-4.742l2.608-7.464h4.711l-.369,1.046h-3.44l-.722,2.061h2.978Z" transform="translate(-1097.223 -270.451)" fill="#10446f"></path><path id="Path_15" data-name="Path 15" d="M1286.012,325.24a1.631,1.631,0,0,1,.04-.518,2.444,2.444,0,0,1-1.591.62,1.426,1.426,0,0,1-1.115-.464,1.25,1.25,0,0,1-.241-1.151,2.127,2.127,0,0,1,1-1.379,3.751,3.751,0,0,1,2.017-.5l.788.01.139-.379a1.178,1.178,0,0,0,.066-.374q0-.554-.633-.569a1.266,1.266,0,0,0-.719.2,1.086,1.086,0,0,0-.46.556l-1.217.01a1.859,1.859,0,0,1,.523-.9,2.733,2.733,0,0,1,.978-.6,3.22,3.22,0,0,1,1.184-.205,1.628,1.628,0,0,1,1.318.546,1.455,1.455,0,0,1,.181,1.361l-.884,2.6-.122.461a1.6,1.6,0,0,0-.027.59l-.021.092Zm-1.094-.892a1.507,1.507,0,0,0,.744-.177,2.435,2.435,0,0,0,.644-.484l.375-1.051-.578,0a2.29,2.29,0,0,0-1.143.259,1.2,1.2,0,0,0-.591.71.57.57,0,0,0,.056.541.619.619,0,0,0,.494.207" transform="translate(-1147.392 -285.797)" fill="#10446f"></path><path id="Path_16" data-name="Path 16" d="M1337.905,323.7q.177-.507-.534-.7a7.2,7.2,0,0,1-.962-.315,1.148,1.148,0,0,1-.778-1.374,1.952,1.952,0,0,1,.9-1.238,2.868,2.868,0,0,1,1.651-.479,1.823,1.823,0,0,1,1.351.5,1.366,1.366,0,0,1,.321,1.277l-1.2-.005a.687.687,0,0,0-.1-.6.722.722,0,0,0-.565-.228,1.364,1.364,0,0,0-.73.2.945.945,0,0,0-.428.523q-.154.467.542.649a6.18,6.18,0,0,1,1.017.336,1.153,1.153,0,0,1,.733,1.394,1.865,1.865,0,0,1-.509.92,2.565,2.565,0,0,1-.964.6,3.2,3.2,0,0,1-1.177.192,1.914,1.914,0,0,1-1.411-.528,1.412,1.412,0,0,1-.353-1.328l1.173,0a.775.775,0,0,0,.147.677.877.877,0,0,0,.661.236,1.574,1.574,0,0,0,.784-.187.914.914,0,0,0,.442-.515" transform="translate(-1193.537 -285.8)" fill="#10446f"></path><path id="Path_17" data-name="Path 17" d="M1381.635,308.244h-1.215l1.942-5.547h1.215Zm1.151-6.967a.833.833,0,0,1,.27-.482.8.8,0,0,1,.534-.21.532.532,0,0,1,.577.651.791.791,0,0,1-.277.482.836.836,0,0,1-.525.2.558.558,0,0,1-.461-.177.524.524,0,0,1-.118-.464" transform="translate(-1234.456 -268.8)" fill="#10446f"></path><path id="Path_18" data-name="Path 18" d="M1410.649,325.342a2.017,2.017,0,0,1-1.189-.364,1.625,1.625,0,0,1-.616-.953,2.752,2.752,0,0,1,.046-1.349l.052-.21a4.465,4.465,0,0,1,.762-1.52,3.662,3.662,0,0,1,1.183-1.023,2.75,2.75,0,0,1,1.361-.333,1.49,1.49,0,0,1,1.424.775,2.68,2.68,0,0,1,.045,1.967l-.166.534h-3.491a1.385,1.385,0,0,0,.079,1.063.869.869,0,0,0,.788.414,2.247,2.247,0,0,0,1.566-.682l.5.646a3,3,0,0,1-1.054.771,3.037,3.037,0,0,1-1.292.264m1.357-4.758q-.959-.031-1.686,1.364l2.3,0,.04-.107a1.718,1.718,0,0,0,.086-.461.787.787,0,0,0-.186-.574.762.762,0,0,0-.555-.226" transform="translate(-1259.817 -285.796)" fill="#10446f"></path><path id="Path_19" data-name="Path 19" d="M1457.56,320.746a2.123,2.123,0,0,0-.467-.051,1.726,1.726,0,0,0-1.388.661l-1.336,3.8h-1.215l1.937-5.547,1.155-.005-.235.63a1.941,1.941,0,0,1,1.443-.738,1.838,1.838,0,0,1,.453.077Z" transform="translate(-1299.498 -285.712)" fill="#10446f"></path></g></svg>